<?xml version="1.0" encoding="UTF-8"?>
<!-- Generated by Pixelmator Pro 2.4.3 -->
<svg width="1350" height="660" viewBox="0 0 1350 660" xmlns="http://www.w3.org/2000/svg" xmlns:xlink="http://www.w3.org/1999/xlink">
    <g id="Group-copy">
        <path id="the-sykstem" fill="#55789e" fill-rule="evenodd" stroke="#000000" stroke-width="4" stroke-opacity="0.398501" stroke-linecap="round" visibility="hidden" d="M 1141.359375 404.421875 L 1149.71875 406.4375 L 1157.734375 409.640625 L 1163.25 413.109375 L 1168.125 417.703125 L 1172.28125 423.4375 L 1176.890625 432.328125 L 1182.21875 425.21875 L 1186.46875 420.578125 L 1191.640625 415.96875 L 1197.21875 411.859375 L 1201.84375 409.078125 L 1206.78125 406.84375 L 1215.59375 404.390625 L 1223.328125 403.53125 L 1231.03125 403.5625 L 1237.203125 404.0625 L 1245.65625 405.46875 L 1251.171875 406.9375 L 1256.203125 408.796875 L 1261.359375 411.40625 L 1266.59375 415.03125 L 1270.171875 418.3125 L 1272.703125 421.203125 L 1277.734375 429.09375 L 1279.765625 433.65625 L 1281.359375 438.40625 L 1283.515625 449.75 L 1284.015625 459.8125 L 1284.015625 566.9375 L 1243.21875 566.9375 L 1243.21875 474.4375 L 1242.75 462.734375 L 1241.953125 456.328125 L 1240.578125 451.296875 L 1238.5 446.78125 L 1235.609375 442.828125 L 1231.921875 439.5625 L 1227.359375 437.015625 L 1223.671875 435.828125 L 1219.546875 435.109375 L 1213.765625 434.78125 L 1207.921875 435.15625 L 1201.828125 436.59375 L 1197.84375 438.453125 L 1193.765625 441.375 L 1190.078125 445.1875 L 1187.171875 449.65625 L 1184.96875 454.59375 L 1183.453125 459.984375 L 1182.265625 468.5 L 1181.828125 476.15625 L 1181.828125 566.9375 L 1141.03125 566.9375 L 1140.984375 472.015625 L 1140.671875 462.0625 L 1139.671875 455.0625 L 1138.203125 450.0625 L 1135.96875 445.46875 L 1133.859375 442.671875 L 1130 439.234375 L 1126.296875 437.15625 L 1122.3125 435.875 L 1118.34375 435.15625 L 1111.84375 434.78125 L 1106.796875 435.359375 L 1100.890625 436.953125 L 1095.5 439.625 L 1091.515625 442.5625 L 1087.875 446.4375 L 1084.6875 451.296875 L 1082.03125 457.1875 L 1080.75 461.921875 L 1079.640625 472.71875 L 1079.625 566.9375 L 1038.84375 566.9375 L 1038.84375 407.875 L 1077.109375 407.875 L 1077.109375 429.953125 L 1080.703125 429.953125 L 1086.5 422.609375 L 1091.484375 417.640625 L 1095.5 414.359375 L 1101.1875 410.609375 L 1107.46875 407.53125 L 1112.296875 405.828125 L 1119.296875 404.25 L 1124.734375 403.625 L 1132.40625 403.515625 Z M 935.171875 437.609375 L 941.59375 439.0625 L 946.84375 441.453125 L 951.203125 444.953125 L 954.71875 449.390625 L 957.71875 454.890625 L 960.265625 461.671875 L 961.765625 467.90625 L 893.765625 467.90625 L 894.359375 463.796875 L 896.640625 456.359375 L 899.65625 450.953125 L 903.796875 446.109375 L 909.28125 441.984375 L 914.34375 439.484375 L 920.296875 437.875 L 928.6875 437.21875 Z M 938.59375 403.84375 L 945.609375 404.75 L 952.265625 406.234375 L 962.375 409.859375 L 971.671875 415 L 976.609375 418.53125 L 981.171875 422.40625 L 985.484375 426.78125 L 989.3125 431.421875 L 996 441.84375 L 1001.109375 453.1875 L 1003.15625 459.421875 L 1005.203125 467.8125 L 1006.328125 474.453125 L 1007.171875 483.15625 L 1007.09375 496.296875 L 889.234375 496.296875 L 890.296875 507.53125 L 891.796875 514.5625 L 894.796875 522.59375 L 897.9375 527.6875 L 901.765625 531.9375 L 907.828125 536.296875 L 913.203125 538.75 L 921.203125 540.828125 L 930.265625 541.609375 L 937.484375 541.265625 L 943.90625 540.0625 L 949.859375 537.9375 L 955.953125 534.484375 L 962.078125 529.5 L 966.109375 524.671875 L 968.09375 520.46875 L 1003.390625 520.46875 L 1001.21875 526.40625 L 998.296875 532.828125 L 995.21875 538.46875 L 991.78125 543.6875 L 987.984375 548.453125 L 982.34375 554.078125 L 977.828125 557.625 L 972.578125 560.90625 L 962.109375 565.734375 L 950.75 569 L 938.203125 570.734375 L 924.09375 570.890625 L 910.90625 569.34375 L 900.765625 566.765625 L 889.609375 562.171875 L 879.75 556.15625 L 871.171875 548.703125 L 863.84375 539.84375 L 857.953125 529.890625 L 853.34375 518.65625 L 850.265625 506.4375 L 848.921875 495.578125 L 848.796875 482 L 850.3125 469.234375 L 853.484375 457.09375 L 858.1875 445.890625 L 864.328125 435.796875 L 871.859375 426.84375 L 880.5 419.3125 L 890.46875 412.984375 L 901.609375 408.03125 L 907.359375 406.265625 L 913.578125 404.875 L 926.484375 403.515625 Z M 798.28125 407.875 L 831.09375 407.875 L 831.09375 433.84375 L 798.28125 433.84375 L 798.296875 518.0625 L 798.671875 523.234375 L 799.71875 528.046875 L 801.28125 531.4375 L 802.96875 533.46875 L 805.9375 535.375 L 809.765625 536.625 L 815.03125 537.375 L 820.1875 537.5 L 827.53125 537.09375 L 831.09375 536.578125 L 831.09375 567.140625 L 822.109375 568.125 L 806.96875 568.515625 L 790.828125 567.578125 L 784.25 566.53125 L 778.125 564.78125 L 772.671875 562.328125 L 767.9375 559.140625 L 763.984375 555.03125 L 761.90625 551.921875 L 759.875 547.640625 L 758.578125 543.21875 L 757.890625 539.109375 L 757.515625 533.4375 L 757.5 433.84375 L 730.375 433.84375 L 730.375 407.875 L 757.5 407.875 L 757.5 358.984375 L 798.28125 358.984375 Z M 655.421875 404.25 L 664.859375 405.65625 L 670.859375 407 L 676.4375 408.71875 L 684.265625 412.140625 L 689.578125 415.28125 L 694.984375 419.5 L 701.5 426.640625 L 705.96875 433.921875 L 709.09375 442.546875 L 710.5625 451.5 L 672.0625 451.5 L 671.5 447.765625 L 670.109375 443.5625 L 668.078125 439.9375 L 665.375 436.875 L 661.53125 434.234375 L 656 431.890625 L 650.671875 430.453125 L 644.296875 429.578125 L 638.765625 429.421875 L 630.71875 429.96875 L 625.25 431.140625 L 621.203125 432.828125 L 617.6875 435.28125 L 614.734375 438.6875 L 613.078125 443.203125 L 612.828125 447.46875 L 613.921875 452.46875 L 616.1875 456.140625 L 619.8125 459.359375 L 625.75 462.703125 L 635.8125 466.125 L 667.53125 473.34375 L 685.234375 478.515625 L 691.53125 481.140625 L 697.359375 484.359375 L 702.59375 488.15625 L 706.984375 492.515625 L 711.40625 498.90625 L 713.84375 504.9375 L 715.1875 512.609375 L 715.171875 521.3125 L 713.953125 530.109375 L 711.5625 537.71875 L 707.90625 544.53125 L 703.46875 550.359375 L 700.5 553.4375 L 695.96875 557.265625 L 686.984375 562.6875 L 677.6875 566.390625 L 671.390625 568.0625 L 664.765625 569.3125 L 654.828125 570.53125 L 647.984375 570.953125 L 634.140625 570.765625 L 623.953125 569.734375 L 617.296875 568.59375 L 610.640625 567.0625 L 604.546875 565.125 L 596.0625 561.34375 L 588.921875 556.890625 L 582.3125 551.109375 L 577.484375 545.34375 L 573.484375 538.8125 L 571.09375 532.890625 L 569.046875 524.28125 L 568.4375 517.953125 L 606.953125 517.953125 L 607.140625 520.59375 L 608.359375 525.640625 L 610.484375 530.109375 L 614.296875 535.0625 L 618.40625 538.5625 L 623.09375 541.296875 L 627.578125 543.078125 L 633.984375 544.625 L 640.65625 545.34375 L 647 545.25 L 654.265625 544.09375 L 660.671875 542.015625 L 666.328125 538.8125 L 670.140625 535.21875 L 673.046875 530.671875 L 674.25 526.4375 L 674.453125 520.453125 L 672.75 515.265625 L 669.1875 510.875 L 663.953125 507.375 L 658.125 504.9375 L 645.9375 501.09375 L 614.96875 493.640625 L 599.96875 489.09375 L 593.75 486.390625 L 588.140625 483.203125 L 583.25 479.5 L 580.34375 476.59375 L 576.171875 470.90625 L 573.859375 465.859375 L 572.390625 459.328125 L 572.09375 450.90625 L 573.015625 442.296875 L 575.078125 434.8125 L 577.921875 428.953125 L 582.359375 422.859375 L 586.1875 418.984375 L 590.5 415.609375 L 597.265625 411.703125 L 602.453125 409.453125 L 607.953125 407.59375 L 617.09375 405.5 L 626.484375 404.203125 L 636.203125 403.546875 L 645.8125 403.546875 Z M 439.984375 465.890625 L 442.484375 466.90625 L 499.28125 407.875 L 546.5 407.875 L 487.34375 465.515625 L 554.640625 566.9375 L 505.25 566.9375 L 459.734375 492.90625 L 439.984375 511.953125 L 439.984375 566.9375 L 399.1875 566.9375 L 399.1875 345.734375 L 439.984375 345.734375 Z M 308 588.3125 L 303.53125 598.453125 L 300.09375 604.1875 L 297.6875 607.4375 L 293.609375 611.84375 L 290.828125 614.21875 L 287.75 616.359375 L 282.6875 619 L 278.9375 620.46875 L 272.71875 622.1875 L 260.484375 623.828125 L 245.21875 623.84375 L 228.25 622.59375 L 228.25 589.75 L 240.703125 590.953125 L 250.859375 591.203125 L 255.515625 590.671875 L 260.640625 588.9375 L 265.484375 585.390625 L 267.703125 582.546875 L 269.609375 579.125 L 271.34375 573.71875 L 271.703125 566.875 L 271.140625 562.6875 L 270.015625 558.8125 L 213.671875 407.875 L 256.96875 407.875 L 293.859375 519.53125 L 297.421875 519.53125 L 333.0625 407.875 L 375.078125 407.875 Z M 141.3125 404.25 L 150.734375 405.65625 L 156.734375 407 L 162.3125 408.71875 L 170.15625 412.140625 L 175.46875 415.28125 L 180.875 419.5 L 187.375 426.640625 L 191.859375 433.921875 L 194.984375 442.546875 L 196.453125 451.5 L 157.953125 451.5 L 157.390625 447.765625 L 156 443.5625 L 153.96875 439.9375 L 151.265625 436.875 L 147.421875 434.234375 L 141.890625 431.890625 L 136.5625 430.453125 L 130.1875 429.578125 L 124.640625 429.421875 L 116.59375 429.96875 L 111.140625 431.140625 L 107.09375 432.828125 L 103.578125 435.28125 L 100.625 438.6875 L 98.96875 443.1875 L 98.703125 447.46875 L 99.8125 452.46875 L 102.078125 456.140625 L 105.703125 459.359375 L 111.640625 462.703125 L 121.6875 466.125 L 153.421875 473.34375 L 171.125 478.515625 L 177.421875 481.140625 L 183.25 484.359375 L 188.46875 488.15625 L 192.875 492.515625 L 197.296875 498.90625 L 199.71875 504.9375 L 201.0625 512.625 L 201.0625 521.3125 L 199.828125 530.109375 L 197.453125 537.71875 L 193.78125 544.53125 L 189.34375 550.359375 L 186.296875 553.53125 L 181.90625 557.234375 L 172.859375 562.6875 L 163.578125 566.390625 L 157.28125 568.0625 L 150.640625 569.3125 L 140.71875 570.53125 L 133.875 570.953125 L 120.015625 570.765625 L 109.84375 569.734375 L 103.171875 568.59375 L 96.53125 567.0625 L 90.4375 565.125 L 81.953125 561.34375 L 74.8125 556.890625 L 68.1875 551.109375 L 63.375 545.34375 L 59.375 538.8125 L 56.96875 532.875 L 54.9375 524.296875 L 54.328125 517.953125 L 92.84375 517.953125 L 93.015625 520.59375 L 94.234375 525.640625 L 96.375 530.109375 L 100.1875 535.0625 L 104.28125 538.5625 L 108.984375 541.296875 L 113.453125 543.078125 L 119.875 544.625 L 126.53125 545.34375 L 132.875 545.25 L 140.15625 544.09375 L 146.5625 542.015625 L 152.203125 538.8125 L 156.03125 535.21875 L 158.9375 530.671875 L 160.140625 526.4375 L 160.328125 520.453125 L 158.640625 515.265625 L 155.0625 510.875 L 149.84375 507.375 L 144.015625 504.9375 L 131.8125 501.09375 L 100.84375 493.640625 L 85.859375 489.09375 L 79.640625 486.390625 L 74.03125 483.203125 L 69.140625 479.5 L 66.234375 476.59375 L 62.0625 470.90625 L 59.75 465.859375 L 58.265625 459.328125 L 57.96875 450.953125 L 58.90625 442.296875 L 60.953125 434.8125 L 63.8125 428.953125 L 68.25 422.859375 L 72.078125 418.984375 L 76.390625 415.609375 L 83.15625 411.703125 L 88.328125 409.453125 L 93.84375 407.59375 L 102.984375 405.5 L 112.375 404.203125 L 122.078125 403.546875 L 131.6875 403.546875 Z"/>
        <path id="Shape" fill="#fb6d8a" fill-rule="evenodd" stroke="#000000" stroke-width="4" stroke-opacity="0.398501" stroke-linecap="round" visibility="hidden" d="M 114.796875 97.921875 L 147.59375 97.921875 L 147.59375 123.890625 L 114.796875 123.890625 L 114.8125 208.09375 L 115.171875 213.28125 L 116.21875 218.09375 L 117.78125 221.484375 L 119.484375 223.53125 L 122.453125 225.4375 L 126.28125 226.6875 L 131.546875 227.4375 L 136.703125 227.5625 L 144.046875 227.140625 L 147.59375 226.625 L 147.59375 257.203125 L 138.625 258.171875 L 123.484375 258.5625 L 107.34375 257.640625 L 100.765625 256.59375 L 94.640625 254.828125 L 89.1875 252.390625 L 84.453125 249.1875 L 80.546875 245.109375 L 78.390625 241.921875 L 76.390625 237.6875 L 75.09375 233.265625 L 74.40625 229.1875 L 74.015625 223.46875 L 74.015625 123.890625 L 46.890625 123.890625 L 46.890625 97.921875 L 74.015625 97.921875 L 74.015625 49.03125 L 114.796875 49.03125 Z M 213.828125 120.640625 L 217.84375 120.640625 L 222.359375 113.96875 L 227.140625 108.53125 L 232.6875 103.8125 L 237.078125 101 L 243.4375 97.96875 L 249.8125 95.6875 L 257.5 94.015625 L 263.703125 93.515625 L 273.84375 93.890625 L 281.296875 94.859375 L 287.953125 96.421875 L 295.234375 99.203125 L 301.296875 102.640625 L 306.53125 106.828125 L 310.828125 111.6875 L 314.96875 118.546875 L 317.65625 125.140625 L 319.375 131.4375 L 320.78125 139.484375 L 321.765625 149.484375 L 322.015625 257 L 281.234375 257 L 281.234375 165.59375 L 280.71875 156.125 L 279.40625 147.890625 L 277.859375 142.5 L 275.8125 137.78125 L 273.21875 133.734375 L 269.859375 130.390625 L 265.75 127.828125 L 260.96875 126.0625 L 255.5625 125.09375 L 250.53125 124.84375 L 244.84375 125.109375 L 238.640625 126.1875 L 233.109375 128.078125 L 228.28125 130.8125 L 224.1875 134.390625 L 220.859375 138.828125 L 218.203125 144.1875 L 216.203125 150.515625 L 214.8125 157.78125 L 213.90625 168.890625 L 213.828125 257 L 173.046875 257 L 173.046875 35.796875 L 213.828125 35.796875 Z M 438.71875 127.65625 L 445.15625 129.125 L 450.390625 131.515625 L 454.75 135 L 458.265625 139.4375 L 461.265625 144.9375 L 463.8125 151.71875 L 465.3125 157.953125 L 397.3125 157.953125 L 397.90625 153.84375 L 400.1875 146.40625 L 403.203125 141 L 407.328125 136.15625 L 412.828125 132.046875 L 417.890625 129.546875 L 423.84375 127.9375 L 432.234375 127.28125 Z M 442.1875 93.890625 L 453.609375 95.71875 L 459.96875 97.546875 L 465.9375 99.921875 L 475.21875 105.046875 L 480.15625 108.578125 L 484.71875 112.453125 L 489.03125 116.828125 L 492.859375 121.46875 L 499.546875 131.890625 L 504.65625 143.234375 L 506.703125 149.46875 L 508.75 157.859375 L 509.875 164.515625 L 510.71875 173.203125 L 510.65625 186.34375 L 392.78125 186.34375 L 393.84375 197.59375 L 395.34375 204.609375 L 398.359375 212.625 L 401.484375 217.734375 L 405.3125 221.984375 L 411.390625 226.34375 L 416.75 228.796875 L 424.75 230.875 L 433.8125 231.65625 L 441.03125 231.328125 L 447.453125 230.109375 L 453.40625 227.984375 L 459.515625 224.53125 L 465.625 219.546875 L 469.65625 214.71875 L 471.640625 210.53125 L 506.9375 210.53125 L 504.71875 216.59375 L 501.921875 222.75 L 498.765625 228.515625 L 495.328125 233.734375 L 491.53125 238.5 L 485.890625 244.125 L 481.46875 247.609375 L 476.03125 251 L 465.671875 255.78125 L 454.296875 259.046875 L 441.75 260.78125 L 427.59375 260.9375 L 416.59375 259.78125 L 404.328125 256.828125 L 393.15625 252.21875 L 383.296875 246.21875 L 374.71875 238.75 L 367.390625 229.890625 L 361.5 219.9375 L 356.890625 208.703125 L 353.8125 196.484375 L 352.46875 185.625 L 352.34375 172.0625 L 353.859375 159.28125 L 357.03125 147.140625 L 361.734375 135.9375 L 367.875 125.84375 L 375.40625 116.890625 L 384.046875 109.359375 L 394.015625 103.03125 L 405.15625 98.078125 L 410.90625 96.3125 L 417.125 94.9375 L 430.046875 93.5625 Z"/>
    </g>
    <g id="Group"/>
    <path id="path1" fill="#ffffff" fill-rule="evenodd" stroke="none" visibility="hidden" d="M 263.583984 568.470703 C 254.330597 568.470703 247.577286 568.218933 244.576172 567.71875 L 244.576172 537.458984 C 247.077103 537.208862 247.327393 537.208984 254.580078 537.208984 C 269.335541 537.459106 273.837158 533.455933 281.089844 515.199219 L 263.333984 515.199219 L 210.564453 396.90625 L 259.082031 396.90625 L 292.84375 482.9375 L 330.357422 396.90625 L 379.376953 396.90625 L 316.353516 530.455078 C 304.098969 556.2146 303.34848 557.465149 295.845703 561.966797 C 288.593018 566.468445 278.83963 568.470703 263.583984 568.470703 Z M 123.03125 518.201172 C 80.015404 518.201172 65.259735 515.700867 54.755859 505.947266 C 47.503185 499.444885 44.502048 491.190613 44.251953 477.435547 L 89.269531 477.435547 C 90.019814 487.689331 98.52298 490.691406 126.283203 490.691406 C 155.043793 490.691406 163.296875 488.190613 163.296875 479.6875 C 163.296875 474.93573 159.54538 471.683868 153.042969 470.933594 C 147.040741 470.433411 136.035568 470.183594 92.519531 470.183594 C 59.007183 469.683411 45.001953 459.17923 45.001953 433.919922 C 45.001953 415.663208 51.504608 404.658203 65.509766 399.40625 C 75.013275 395.654846 95.771774 393.904297 126.783203 393.904297 C 167.048035 393.904297 181.802963 396.40506 191.806641 404.908203 C 198.05896 409.910034 200.310181 416.16272 201.310547 430.417969 L 156.292969 430.417969 C 155.292603 426.666565 154.793518 425.916382 153.292969 424.916016 C 149.54158 422.4151 140.538727 421.416016 125.533203 421.416016 C 97.772972 421.416016 89.269531 423.665192 89.269531 431.167969 C 89.269531 435.919739 92.770859 438.421692 99.773438 438.921875 C 107.026115 439.422058 114.778145 439.671783 160.294922 439.921875 C 194.557556 440.171967 207.5625 450.175781 207.5625 476.685547 C 207.5625 510.447998 191.556519 518.201172 123.03125 518.201172 Z M 624.966797 518.201172 C 581.95105 518.201172 567.195313 515.700806 556.691406 505.947266 C 549.438721 499.444885 546.437622 491.190613 546.1875 477.435547 L 591.205078 477.435547 C 591.955322 487.689301 600.458496 490.691406 628.21875 490.691406 C 656.979431 490.691406 665.232422 488.190613 665.232422 479.6875 C 665.232422 474.93573 661.480896 471.683868 654.978516 470.933594 C 648.976257 470.433411 637.973022 470.183594 594.457031 470.183594 C 560.944824 469.683411 546.939453 459.179199 546.939453 433.919922 C 546.939453 415.663208 553.440125 404.658203 567.445313 399.40625 C 576.948853 395.654846 597.707458 393.904297 628.71875 393.904297 C 668.983521 393.904297 683.738464 396.40506 693.742188 404.908203 C 699.994507 409.910034 702.245728 416.16272 703.246094 430.417969 L 658.230469 430.417969 C 657.230103 426.666565 656.729126 425.916382 655.228516 424.916016 C 651.477173 422.4151 642.474304 421.416016 627.46875 421.416016 C 599.708435 421.416016 591.205078 423.665192 591.205078 431.167969 C 591.205078 435.919739 594.706421 438.421692 601.708984 438.921875 C 608.96167 439.422058 616.713806 439.671783 662.230469 439.921875 C 696.492981 440.171967 709.498047 450.175812 709.498047 476.685547 C 709.498047 510.447968 693.492004 518.201172 624.966797 518.201172 Z M 797.28125 518.201172 C 769.020752 518.201172 757.516907 515.700378 748.763672 507.197266 C 742.511353 500.944946 740.009949 494.442444 739.509766 480.9375 C 739.259705 478.936768 739.259766 472.935211 739.259766 463.181641 L 739.259766 428.667969 L 716.001953 428.667969 L 716.001953 396.90625 L 739.259766 396.90625 L 739.259766 369.646484 L 783.525391 369.646484 L 783.525391 396.90625 L 853.552734 396.90625 L 853.552734 428.667969 L 783.525391 428.667969 L 783.525391 463.181641 C 783.525391 476.186401 783.776611 477.936401 785.777344 480.9375 C 788.028198 484.938965 792.530029 486.689453 801.033203 486.689453 C 810.036499 486.689453 815.03833 484.939087 817.039063 480.6875 C 818.539612 477.936462 818.789063 476.936157 818.789063 464.681641 L 859.304688 464.681641 C 858.804504 487.189941 857.053284 494.442108 850.300781 503.195313 C 841.297424 514.449463 827.792542 518.201172 797.28125 518.201172 Z M 946.335938 518.201172 C 912.073425 518.201172 895.81842 515.200195 885.064453 507.197266 C 873.560181 498.444061 870.058594 486.688843 870.058594 456.427734 C 870.058594 424.666077 873.559814 412.911377 886.064453 404.158203 C 897.568726 396.155243 912.323792 393.654297 950.837891 393.654297 C 990.852539 393.654297 1004.857361 396.154968 1015.611328 404.908203 C 1026.115234 413.661377 1030.117188 426.917908 1030.117188 453.677734 C 1030.117188 455.178284 1030.11731 460.679779 1029.867188 465.681641 L 914.324219 465.681641 C 914.324219 477.686035 915.574585 481.688232 919.826172 484.939453 C 924.577942 488.440735 933.83197 489.941406 949.837891 489.941406 C 978.098389 489.941406 983.350952 487.939392 985.101563 477.435547 L 1029.117188 477.435547 C 1025.865967 510.197601 1009.609192 518.201172 946.335938 518.201172 Z M 386.128906 515.199219 L 386.128906 348.388672 L 430.394531 348.388672 L 430.394531 435.419922 L 439.898438 435.419922 L 480.414063 396.90625 L 539.685547 396.90625 L 478.414063 451.925781 L 547.939453 515.199219 L 489.167969 515.199219 L 441.650391 467.681641 L 430.394531 467.681641 L 430.394531 515.199219 L 386.128906 515.199219 Z M 1046.623047 515.199219 L 1046.623047 396.90625 L 1088.388672 396.90625 L 1088.388672 414.662109 L 1090.640625 414.662109 C 1097.143066 400.40683 1112.14856 393.904297 1138.408203 393.904297 C 1166.918823 393.904297 1182.674194 401.157654 1192.177734 418.664063 C 1199.68042 400.907562 1214.186523 393.904297 1243.197266 393.904297 C 1267.706299 393.904297 1282.21106 398.406158 1292.464844 409.160156 C 1302.718628 419.664001 1304.96875 429.418457 1304.96875 459.929688 L 1304.96875 515.199219 L 1260.703125 515.199219 L 1260.703125 459.929688 C 1260.453003 440.172424 1259.952637 437.921509 1255.701172 433.669922 C 1251.199463 429.168274 1243.696167 427.167969 1230.691406 427.167969 C 1217.436401 427.167969 1209.18335 429.417969 1204.431641 434.669922 C 1199.42981 440.171936 1197.929688 447.174561 1197.929688 466.431641 L 1197.929688 515.199219 L 1153.664063 515.199219 L 1153.664063 459.929688 C 1153.664063 441.422852 1153.163696 438.1716 1148.912109 433.669922 C 1144.910645 429.168274 1137.157104 427.167969 1124.402344 427.167969 C 1111.147461 427.167969 1102.394409 429.418091 1097.392578 434.419922 C 1092.390747 439.421783 1090.890625 446.924438 1090.890625 466.431641 L 1090.890625 515.199219 L 1046.623047 515.199219 Z M 914.324219 441.421875 L 985.601563 441.421875 C 985.351501 432.168518 984.850647 429.919006 982.099609 427.167969 C 978.098145 422.916382 969.09436 421.166016 951.587891 421.166016 C 921.826843 421.166016 914.824402 424.915833 914.324219 441.421875 Z M 119.279297 259.001953 C 91.018852 259.001953 79.514954 256.499237 70.761719 247.996094 C 64.509415 241.743774 62.007996 235.243286 61.507813 221.738281 C 61.257717 219.737549 61.257813 213.7341 61.257813 203.980469 L 61.257813 169.46875 L 38 169.46875 L 38 137.707031 L 61.257813 137.707031 L 61.257813 110.445313 L 105.525391 110.445313 L 105.525391 137.707031 L 175.550781 137.707031 L 175.550781 169.46875 L 105.525391 169.46875 L 105.525391 203.980469 C 105.525391 216.985291 105.774651 218.737183 107.775391 221.738281 C 110.026222 225.739777 114.528107 227.490234 123.03125 227.490234 C 132.034576 227.490234 137.036362 225.737915 139.037109 221.486328 C 140.537659 218.735321 140.789063 217.734985 140.789063 205.480469 L 181.302734 205.480469 C 180.802551 227.98877 179.051315 235.242859 172.298828 243.996094 C 163.295502 255.250275 149.790573 259.001953 119.279297 259.001953 Z M 446.400391 259.001953 C 412.137756 259.001953 395.882904 255.999054 385.128906 247.996094 C 373.624634 239.242859 370.123047 227.489685 370.123047 197.228516 C 370.123047 165.466827 373.624268 153.712219 386.128906 144.958984 C 397.633179 136.955994 412.388123 134.455078 450.902344 134.455078 C 490.917114 134.455078 504.923767 136.95575 515.677734 145.708984 C 526.181641 154.46225 530.181641 167.716705 530.181641 194.476563 C 530.181641 195.977112 530.181702 201.48056 529.931641 206.482422 L 414.388672 206.482422 C 414.388672 218.486847 415.639069 222.487061 419.890625 225.738281 C 424.642395 229.239563 433.896454 230.740234 449.902344 230.740234 C 478.16275 230.740234 483.415375 228.740234 485.166016 218.236328 L 529.181641 218.236328 C 525.93042 250.998413 509.673706 259.001953 446.400391 259.001953 Z M 193.808594 256 L 193.808594 89.1875 L 238.074219 89.1875 L 238.074219 155.712891 L 240.074219 155.712891 C 247.32692 140.707336 261.833435 134.455078 289.84375 134.455078 C 316.103424 134.455078 330.859467 138.707092 341.113281 149.210938 C 351.367065 159.714844 354.117188 170.468262 354.117188 198.228516 L 354.117188 256 L 309.851563 256 L 309.851563 198.228516 C 309.851563 172.469025 304.598572 167.716797 275.587891 167.716797 C 244.32637 167.716797 238.074219 173.968842 238.074219 205.480469 L 238.074219 256 L 193.808594 256 Z M 414.388672 182.222656 L 485.666016 182.222656 C 485.415924 172.969238 484.9151 170.717804 482.164063 167.966797 C 478.162598 163.71521 469.158752 161.964844 451.652344 161.964844 C 421.891357 161.964844 414.888855 165.716614 414.388672 182.222656 Z"/>
    <path id="path2" fill="#1d1d1d" fill-rule="evenodd" stroke="none" d="M 263.583984 568.470703 C 254.330597 568.470703 247.577286 568.218933 244.576172 567.71875 L 244.576172 537.458984 C 247.077103 537.208862 247.327393 537.208984 254.580078 537.208984 C 269.335541 537.459106 273.837158 533.455933 281.089844 515.199219 L 263.333984 515.199219 L 210.564453 396.90625 L 259.082031 396.90625 L 292.84375 482.9375 L 330.357422 396.90625 L 379.376953 396.90625 L 316.353516 530.455078 C 304.098969 556.2146 303.34848 557.465149 295.845703 561.966797 C 288.593018 566.468445 278.83963 568.470703 263.583984 568.470703 Z M 123.03125 518.201172 C 80.015404 518.201172 65.259735 515.700867 54.755859 505.947266 C 47.503185 499.444885 44.502048 491.190613 44.251953 477.435547 L 89.269531 477.435547 C 90.019814 487.689331 98.52298 490.691406 126.283203 490.691406 C 155.043793 490.691406 163.296875 488.190613 163.296875 479.6875 C 163.296875 474.93573 159.54538 471.683868 153.042969 470.933594 C 147.040741 470.433411 136.035568 470.183594 92.519531 470.183594 C 59.007183 469.683411 45.001953 459.17923 45.001953 433.919922 C 45.001953 415.663208 51.504608 404.658203 65.509766 399.40625 C 75.013275 395.654846 95.771774 393.904297 126.783203 393.904297 C 167.048035 393.904297 181.802963 396.40506 191.806641 404.908203 C 198.05896 409.910034 200.310181 416.16272 201.310547 430.417969 L 156.292969 430.417969 C 155.292603 426.666565 154.793518 425.916382 153.292969 424.916016 C 149.54158 422.4151 140.538727 421.416016 125.533203 421.416016 C 97.772972 421.416016 89.269531 423.665192 89.269531 431.167969 C 89.269531 435.919739 92.770859 438.421692 99.773438 438.921875 C 107.026115 439.422058 114.778145 439.671783 160.294922 439.921875 C 194.557556 440.171967 207.5625 450.175781 207.5625 476.685547 C 207.5625 510.447998 191.556519 518.201172 123.03125 518.201172 Z M 624.966797 518.201172 C 581.95105 518.201172 567.195313 515.700806 556.691406 505.947266 C 549.438721 499.444885 546.437622 491.190613 546.1875 477.435547 L 591.205078 477.435547 C 591.955322 487.689301 600.458496 490.691406 628.21875 490.691406 C 656.979431 490.691406 665.232422 488.190613 665.232422 479.6875 C 665.232422 474.93573 661.480896 471.683868 654.978516 470.933594 C 648.976257 470.433411 637.973022 470.183594 594.457031 470.183594 C 560.944824 469.683411 546.939453 459.179199 546.939453 433.919922 C 546.939453 415.663208 553.440125 404.658203 567.445313 399.40625 C 576.948853 395.654846 597.707458 393.904297 628.71875 393.904297 C 668.983521 393.904297 683.738464 396.40506 693.742188 404.908203 C 699.994507 409.910034 702.245728 416.16272 703.246094 430.417969 L 658.230469 430.417969 C 657.230103 426.666565 656.729126 425.916382 655.228516 424.916016 C 651.477173 422.4151 642.474304 421.416016 627.46875 421.416016 C 599.708435 421.416016 591.205078 423.665192 591.205078 431.167969 C 591.205078 435.919739 594.706421 438.421692 601.708984 438.921875 C 608.96167 439.422058 616.713806 439.671783 662.230469 439.921875 C 696.492981 440.171967 709.498047 450.175812 709.498047 476.685547 C 709.498047 510.447968 693.492004 518.201172 624.966797 518.201172 Z M 797.28125 518.201172 C 769.020752 518.201172 757.516907 515.700378 748.763672 507.197266 C 742.511353 500.944946 740.009949 494.442444 739.509766 480.9375 C 739.259705 478.936768 739.259766 472.935211 739.259766 463.181641 L 739.259766 428.667969 L 716.001953 428.667969 L 716.001953 396.90625 L 739.259766 396.90625 L 739.259766 369.646484 L 783.525391 369.646484 L 783.525391 396.90625 L 853.552734 396.90625 L 853.552734 428.667969 L 783.525391 428.667969 L 783.525391 463.181641 C 783.525391 476.186401 783.776611 477.936401 785.777344 480.9375 C 788.028198 484.938965 792.530029 486.689453 801.033203 486.689453 C 810.036499 486.689453 815.03833 484.939087 817.039063 480.6875 C 818.539612 477.936462 818.789063 476.936157 818.789063 464.681641 L 859.304688 464.681641 C 858.804504 487.189941 857.053284 494.442108 850.300781 503.195313 C 841.297424 514.449463 827.792542 518.201172 797.28125 518.201172 Z M 946.335938 518.201172 C 912.073425 518.201172 895.81842 515.200195 885.064453 507.197266 C 873.560181 498.444061 870.058594 486.688843 870.058594 456.427734 C 870.058594 424.666077 873.559814 412.911377 886.064453 404.158203 C 897.568726 396.155243 912.323792 393.654297 950.837891 393.654297 C 990.852539 393.654297 1004.857361 396.154968 1015.611328 404.908203 C 1026.115234 413.661377 1030.117188 426.917908 1030.117188 453.677734 C 1030.117188 455.178284 1030.11731 460.679779 1029.867188 465.681641 L 914.324219 465.681641 C 914.324219 477.686035 915.574585 481.688232 919.826172 484.939453 C 924.577942 488.440735 933.83197 489.941406 949.837891 489.941406 C 978.098389 489.941406 983.350952 487.939392 985.101563 477.435547 L 1029.117188 477.435547 C 1025.865967 510.197601 1009.609192 518.201172 946.335938 518.201172 Z M 386.128906 515.199219 L 386.128906 348.388672 L 430.394531 348.388672 L 430.394531 435.419922 L 439.898438 435.419922 L 480.414063 396.90625 L 539.685547 396.90625 L 478.414063 451.925781 L 547.939453 515.199219 L 489.167969 515.199219 L 441.650391 467.681641 L 430.394531 467.681641 L 430.394531 515.199219 L 386.128906 515.199219 Z M 1046.623047 515.199219 L 1046.623047 396.90625 L 1088.388672 396.90625 L 1088.388672 414.662109 L 1090.640625 414.662109 C 1097.143066 400.40683 1112.14856 393.904297 1138.408203 393.904297 C 1166.918823 393.904297 1182.674194 401.157654 1192.177734 418.664063 C 1199.68042 400.907562 1214.186523 393.904297 1243.197266 393.904297 C 1267.706299 393.904297 1282.21106 398.406158 1292.464844 409.160156 C 1302.718628 419.664001 1304.96875 429.418457 1304.96875 459.929688 L 1304.96875 515.199219 L 1260.703125 515.199219 L 1260.703125 459.929688 C 1260.453003 440.172424 1259.952637 437.921509 1255.701172 433.669922 C 1251.199463 429.168274 1243.696167 427.167969 1230.691406 427.167969 C 1217.436401 427.167969 1209.18335 429.417969 1204.431641 434.669922 C 1199.42981 440.171936 1197.929688 447.174561 1197.929688 466.431641 L 1197.929688 515.199219 L 1153.664063 515.199219 L 1153.664063 459.929688 C 1153.664063 441.422852 1153.163696 438.1716 1148.912109 433.669922 C 1144.910645 429.168274 1137.157104 427.167969 1124.402344 427.167969 C 1111.147461 427.167969 1102.394409 429.418091 1097.392578 434.419922 C 1092.390747 439.421783 1090.890625 446.924438 1090.890625 466.431641 L 1090.890625 515.199219 L 1046.623047 515.199219 Z M 914.324219 441.421875 L 985.601563 441.421875 C 985.351501 432.168518 984.850647 429.919006 982.099609 427.167969 C 978.098145 422.916382 969.09436 421.166016 951.587891 421.166016 C 921.826843 421.166016 914.824402 424.915833 914.324219 441.421875 Z M 119.279297 259.001953 C 91.018852 259.001953 79.514954 256.499237 70.761719 247.996094 C 64.509415 241.743774 62.007996 235.243286 61.507813 221.738281 C 61.257717 219.737549 61.257813 213.7341 61.257813 203.980469 L 61.257813 169.46875 L 38 169.46875 L 38 137.707031 L 61.257813 137.707031 L 61.257813 110.445313 L 105.525391 110.445313 L 105.525391 137.707031 L 175.550781 137.707031 L 175.550781 169.46875 L 105.525391 169.46875 L 105.525391 203.980469 C 105.525391 216.985291 105.774651 218.737183 107.775391 221.738281 C 110.026222 225.739777 114.528107 227.490234 123.03125 227.490234 C 132.034576 227.490234 137.036362 225.737915 139.037109 221.486328 C 140.537659 218.735321 140.789063 217.734985 140.789063 205.480469 L 181.302734 205.480469 C 180.802551 227.98877 179.051315 235.242859 172.298828 243.996094 C 163.295502 255.250275 149.790573 259.001953 119.279297 259.001953 Z M 446.400391 259.001953 C 412.137756 259.001953 395.882904 255.999054 385.128906 247.996094 C 373.624634 239.242859 370.123047 227.489685 370.123047 197.228516 C 370.123047 165.466827 373.624268 153.712219 386.128906 144.958984 C 397.633179 136.955994 412.388123 134.455078 450.902344 134.455078 C 490.917114 134.455078 504.923767 136.95575 515.677734 145.708984 C 526.181641 154.46225 530.181641 167.716705 530.181641 194.476563 C 530.181641 195.977112 530.181702 201.48056 529.931641 206.482422 L 414.388672 206.482422 C 414.388672 218.486847 415.639069 222.487061 419.890625 225.738281 C 424.642395 229.239563 433.896454 230.740234 449.902344 230.740234 C 478.16275 230.740234 483.415375 228.740234 485.166016 218.236328 L 529.181641 218.236328 C 525.93042 250.998413 509.673706 259.001953 446.400391 259.001953 Z M 193.808594 256 L 193.808594 89.1875 L 238.074219 89.1875 L 238.074219 155.712891 L 240.074219 155.712891 C 247.32692 140.707336 261.833435 134.455078 289.84375 134.455078 C 316.103424 134.455078 330.859467 138.707092 341.113281 149.210938 C 351.367065 159.714844 354.117188 170.468262 354.117188 198.228516 L 354.117188 256 L 309.851563 256 L 309.851563 198.228516 C 309.851563 172.469025 304.598572 167.716797 275.587891 167.716797 C 244.32637 167.716797 238.074219 173.968842 238.074219 205.480469 L 238.074219 256 L 193.808594 256 Z M 414.388672 182.222656 L 485.666016 182.222656 C 485.415924 172.969238 484.9151 170.717804 482.164063 167.966797 C 478.162598 163.71521 469.158752 161.964844 451.652344 161.964844 C 421.891357 161.964844 414.888855 165.716614 414.388672 182.222656 Z"/>
</svg>
